<mxfile host="app.diagrams.net" modified="2023-06-14T08:10:09.447Z" agent="Mozilla/5.0 (Windows NT 10.0; Win64; x64; rv:109.0) Gecko/20100101 Firefox/114.0" version="21.3.8" etag="RkKXw6-zR_USGFYPVHhQ" type="github">
  <diagram name="Page-1" id="lbRTM-DUJiNK2-kyeArl">
    <mxGraphModel>
      <root>
        <mxCell id="0" />
        <mxCell id="1" parent="0" />
      </root>
    </mxGraphModel>
  </diagram>
</mxfile>
